<svg xmlns="http://www.w3.org/2000/svg" viewBox="0 0 871 233.8">
  <defs>
    <style>
      .cls-1, .cls-2, .cls-3 {
        fill: #fff;
      }

      .cls-2 {
        font-size: 109px;
      }

      .cls-2, .cls-3 {
        font-family: Montserrat-Bold, Montserrat;
        font-weight: 700;
      }

      .cls-3 {
        font-size: 46px;
        letter-spacing: -0.06em;
      }

      .cls-4 {
        letter-spacing: 0em;
      }
    </style>
  </defs>
  <title>BroadsideLogo</title>
  <g id="Layer_2" data-name="Layer 2">
    <g id="Layer_1-2" data-name="Layer 1">
      <g>
        <path class="cls-1" d="M202,190.5c-40-43-168-58-168-58l30,78L0,109.5S163,132.5,202,190.5Z"/>
        <path class="cls-1" d="M245,181.5c-11,97-161,0-161,0l-1,29-27-63S234,266.5,245,181.5Z"/>
        <path class="cls-1" d="M102,52.5s-34.6,16.6-25,65l7.5,2.6c21.2,5.1,45.2,11.6,68.5,19.4h0c25,1,46,3,85,23-11-46,7-92,36-112C183,31.5,102,52.5,102,52.5Z"/>
        <path class="cls-1" d="M241.5,11.5c-20.8,0-65.9,1-73.2,1-8.3,5-12.9,15-13.8,27.8a370.5,370.5,0,0,1,73.2-1.7C228.7,26.2,233.3,16.4,241.5,11.5Z"/>
        <path class="cls-1" d="M222.5,0,198.9.3c-2.6,1.7-4.1,4.4-4.4,8.7,6,0,14.4-.2,24,0C218.8,4.8,219.9,1.7,222.5,0Z"/>
      </g>
      <text class="cls-2" transform="translate(260 164.6)">Broadside</text>
      <text class="cls-3" transform="translate(599.2 213)">T<tspan class="cls-4" x="25.3" y="0">echnology</tspan></text>
    </g>
  </g>
</svg>
