<svg xmlns="http://www.w3.org/2000/svg" viewBox="0 0 672.5 165.9">
  <defs>
    <style>
      .cls-1 {
        font-size: 109px;
        font-family: Montserrat-Bold, Montserrat;
        font-weight: 700;
      }

      .cls-1, .cls-3, .cls-5, .cls-6 {
        fill: #fff;
      }

      .cls-2 {
        letter-spacing: -0.02em;
      }

      .cls-3 {
        font-size: 46px;
        letter-spacing: -0.07em;
      }

      .cls-3, .cls-5 {
        font-family: Montserrat-Regular, Montserrat;
      }

      .cls-4 {
        letter-spacing: 0em;
      }

      .cls-5 {
        font-size: 19px;
      }
    </style>
  </defs>
  <title>BroadsideLogo_5</title>
  <g id="Layer_2" data-name="Layer 2">
    <g id="Layer_1-2" data-name="Layer 1">
      <text class="cls-1" transform="translate(0 92.7)">BR<tspan class="cls-2" x="157" y="0">O</tspan><tspan x="242.5" y="0">ADSIDE</tspan></text>
      <text class="cls-3" transform="translate(346.2 148.1)">T<tspan class="cls-4" x="22.8" y="0">echnology</tspan></text>
      <text class="cls-5" transform="translate(616.2 148.1)">LLC</text>
      <path class="cls-6" d="M5.5,109.1v46h322v-46Zm116,36a13,13,0,1,1,13-13A13,13,0,0,1,121.5,145.1Zm45,0a13,13,0,1,1,13-13A13,13,0,0,1,166.5,145.1Zm45,0a13,13,0,1,1,13-13A13,13,0,0,1,211.5,145.1Z"/>
    </g>
  </g>
</svg>
