<svg width="1598" height="554" viewBox="0 0 1598 554" fill="none" xmlns="http://www.w3.org/2000/svg">
<g filter="url(#filter0_d)">
<path d="M164.731 111.594C167.043 107.588 171.317 105.121 175.942 105.121L349.058 105.121C353.683 105.121 357.957 107.588 360.269 111.594L446.827 261.516C449.139 265.522 449.14 270.457 446.827 274.462L360.269 424.385C357.957 428.39 353.683 430.858 349.058 430.858L175.942 430.858C171.317 430.858 167.043 428.39 164.731 424.385L78.1731 274.462C75.8605 270.457 75.8605 265.522 78.1731 261.516L164.731 111.594Z" fill="#21B3A2"/>
</g>
<g filter="url(#filter1_d)">
<path fill-rule="evenodd" clip-rule="evenodd" d="M175.942 93.0997L349.058 93.0997C357.978 93.0997 366.22 97.8584 370.68 105.583L457.238 255.506C461.698 263.23 461.698 272.748 457.238 280.473L370.68 430.395C366.22 438.12 357.978 442.879 349.058 442.879L175.942 442.879C167.022 442.879 158.78 438.12 154.32 430.395L67.7624 280.473C63.3025 272.748 63.3025 263.23 67.7624 255.506L154.32 105.583C158.78 97.8584 167.022 93.0997 175.942 93.0997ZM175.942 105.121C171.317 105.121 167.043 107.588 164.731 111.594L78.1731 261.516C75.8605 265.522 75.8605 270.457 78.1731 274.462L164.731 424.385C167.043 428.39 171.317 430.857 175.942 430.857L349.058 430.857C353.683 430.857 357.957 428.39 360.269 424.385L446.827 274.462C449.14 270.457 449.14 265.522 446.827 261.516L360.269 111.594C357.957 107.588 353.683 105.121 349.058 105.121L175.942 105.121Z" fill="#2D4663"/>
</g>
<path d="M122.665 352.883L401.716 352.883L356.097 431.771H167.457L122.665 352.883Z" fill="#2D4663"/>
<path d="M130.062 265.729C130.062 265.729 165.606 308.496 256.95 327.453C348.294 346.41 390.368 309.884 390.368 309.884C390.368 309.884 368.175 372.301 353.076 390.564C331.735 391.951 329.337 379.93 304.066 382.242C278.796 384.554 275.473 405.822 256.95 401.775C222.302 376.463 182.93 385.016 182.93 385.016L138.154 319.131L130.062 265.729Z" fill="white"/>
<path d="M189.013 190.365L372.567 159.619C372.567 159.619 338.419 207.224 335.348 242.611C332.601 274.259 352.455 322.136 352.455 322.136L189.013 294.857C189.013 294.857 173.061 263.945 173.061 242.611C173.061 221.278 189.013 190.365 189.013 190.365Z" fill="white"/>
<path d="M280.65 154.995C280.65 154.995 276.987 145.148 272.699 141.356C268.41 137.564 258.688 135.576 258.688 135.576C258.688 135.576 256.488 152.414 254.898 173.574L277.762 169.741C279.402 160.799 280.65 154.995 280.65 154.995Z" fill="white"/>
<path d="M259.522 311.733C261.222 319.34 262.377 324.076 262.377 324.076C262.377 324.076 265.536 325.192 267.613 325.463C269.689 325.733 273.011 325.463 273.011 325.463C273.011 325.463 272.081 320.892 270.771 313.612C270.771 313.612 267.266 313.487 265.07 313.12C262.873 312.754 259.522 311.733 259.522 311.733Z" fill="white"/>
<path d="M509.378 322V183.367H557.938C574.759 183.367 587.518 186.604 596.214 193.079C604.91 199.49 609.258 208.917 609.258 221.358C609.258 228.15 607.513 234.148 604.021 239.354C600.53 244.495 595.674 248.272 589.454 250.684C596.563 252.461 602.149 256.048 606.211 261.443C610.337 266.839 612.4 273.44 612.4 281.248C612.4 294.578 608.147 304.671 599.642 311.526C591.136 318.382 579.012 321.873 563.27 322H509.378ZM537.942 261.634V299.053H562.413C569.141 299.053 574.378 297.466 578.123 294.292C581.932 291.055 583.836 286.612 583.836 280.962C583.836 268.267 577.266 261.824 564.126 261.634H537.942ZM537.942 241.448H559.08C573.489 241.194 580.694 235.45 580.694 224.214C580.694 217.93 578.853 213.423 575.171 210.694C571.553 207.901 565.809 206.504 557.938 206.504H537.942V241.448ZM685.24 271.25H662.483V322H633.919V183.367H685.43C701.807 183.367 714.439 187.017 723.326 194.317C732.212 201.617 736.656 211.932 736.656 225.262C736.656 234.72 734.593 242.623 730.467 248.97C726.404 255.254 720.215 260.269 711.9 264.014L741.893 320.667V322H711.233L685.24 271.25ZM662.483 248.113H685.525C692.698 248.113 698.252 246.304 702.188 242.686C706.124 239.004 708.091 233.958 708.091 227.547C708.091 221.009 706.219 215.867 702.474 212.122C698.792 208.377 693.111 206.504 685.43 206.504H662.483V248.113ZM872.337 255.826C872.337 269.473 869.925 281.438 865.101 291.722C860.276 302.005 853.357 309.939 844.344 315.525C835.394 321.111 825.11 323.904 813.494 323.904C802.005 323.904 791.753 321.143 782.74 315.621C773.726 310.098 766.744 302.227 761.792 292.007C756.841 281.724 754.334 269.917 754.271 256.587V249.732C754.271 236.084 756.714 224.087 761.602 213.741C766.553 203.331 773.504 195.364 782.454 189.842C791.468 184.256 801.751 181.463 813.304 181.463C824.856 181.463 835.108 184.256 844.058 189.842C853.072 195.364 860.022 203.331 864.91 213.741C869.861 224.087 872.337 236.053 872.337 249.637V255.826ZM843.392 249.542C843.392 235.005 840.789 223.96 835.584 216.407C830.379 208.853 822.952 205.076 813.304 205.076C803.719 205.076 796.324 208.821 791.119 216.312C785.914 223.738 783.279 234.656 783.216 249.065V255.826C783.216 269.981 785.818 280.962 791.023 288.77C796.229 296.578 803.719 300.481 813.494 300.481C823.079 300.481 830.442 296.736 835.584 289.246C840.726 281.692 843.328 270.711 843.392 256.302V249.542ZM969.266 293.436H919.183L909.661 322H879.288L930.894 183.367H957.364L1009.26 322H978.882L969.266 293.436ZM926.895 270.298H961.553L944.129 218.406L926.895 270.298ZM1022.21 322V183.367H1064.86C1077.05 183.367 1087.94 186.128 1097.52 191.651C1107.17 197.11 1114.69 204.917 1120.09 215.074C1125.48 225.167 1128.18 236.656 1128.18 249.542V255.921C1128.18 268.807 1125.51 280.264 1120.18 290.293C1114.91 300.323 1107.45 308.099 1097.81 313.621C1088.16 319.144 1077.27 321.937 1065.15 322H1022.21ZM1050.77 206.504V299.053H1064.58C1075.75 299.053 1084.29 295.403 1090.19 288.104C1096.09 280.804 1099.11 270.362 1099.23 256.778V249.446C1099.23 235.354 1096.31 224.69 1090.47 217.454C1084.63 210.154 1076.1 206.504 1064.86 206.504H1050.77ZM1220.92 285.628C1220.92 280.232 1219.01 276.106 1215.21 273.25C1211.4 270.33 1204.54 267.283 1194.64 264.109C1184.74 260.872 1176.9 257.698 1171.12 254.588C1155.38 246.082 1147.51 234.625 1147.51 220.215C1147.51 212.725 1149.6 206.06 1153.79 200.22C1158.04 194.317 1164.11 189.715 1171.98 186.414C1179.91 183.113 1188.8 181.463 1198.64 181.463C1208.54 181.463 1217.36 183.272 1225.11 186.89C1232.85 190.445 1238.85 195.491 1243.1 202.029C1247.42 208.567 1249.58 215.994 1249.58 224.31H1221.01C1221.01 217.962 1219.01 213.042 1215.02 209.551C1211.02 205.997 1205.4 204.219 1198.16 204.219C1191.18 204.219 1185.75 205.711 1181.88 208.694C1178.01 211.614 1176.07 215.486 1176.07 220.311C1176.07 224.817 1178.33 228.594 1182.83 231.641C1187.4 234.688 1194.1 237.544 1202.92 240.21C1219.17 245.098 1231.01 251.16 1238.44 258.396C1245.86 265.633 1249.58 274.646 1249.58 285.438C1249.58 297.435 1245.04 306.861 1235.96 313.716C1226.89 320.508 1214.67 323.904 1199.3 323.904C1188.64 323.904 1178.93 321.968 1170.17 318.096C1161.41 314.161 1154.71 308.797 1150.08 302.005C1145.51 295.213 1143.22 287.342 1143.22 278.392H1171.88C1171.88 293.689 1181.02 301.338 1199.3 301.338C1206.1 301.338 1211.4 299.974 1215.21 297.244C1219.01 294.451 1220.92 290.579 1220.92 285.628ZM1299.38 322H1270.81V183.367H1299.38V322ZM1325.94 322V183.367H1368.6C1380.78 183.367 1391.67 186.128 1401.26 191.651C1410.9 197.11 1418.43 204.917 1423.82 215.074C1429.22 225.167 1431.91 236.656 1431.91 249.542V255.921C1431.91 268.807 1429.25 280.264 1423.92 290.293C1418.65 300.323 1411.19 308.099 1401.54 313.621C1391.89 319.144 1381.01 321.937 1368.88 322H1325.94ZM1354.5 206.504V299.053H1368.31C1379.48 299.053 1388.02 295.403 1393.92 288.104C1399.83 280.804 1402.84 270.362 1402.97 256.778V249.446C1402.97 235.354 1400.05 224.69 1394.21 217.454C1388.37 210.154 1379.83 206.504 1368.6 206.504H1354.5ZM1536.17 261.919H1481.33V299.053H1545.7V322H1452.77V183.367H1545.51V206.504H1481.33V239.544H1536.17V261.919Z" fill="#2D4663"/>
<path d="M1253.31 361.094H1239.38V399H1230V361.094H1216.25V353.5H1253.31V361.094ZM1270.84 399.625C1265.89 399.625 1261.84 398.104 1258.72 395.062C1255.61 392.021 1254.06 387.969 1254.06 382.906V382.031C1254.06 378.635 1254.72 375.604 1256.03 372.938C1257.34 370.25 1259.2 368.188 1261.59 366.75C1264.01 365.292 1266.76 364.562 1269.84 364.562C1274.47 364.562 1278.1 366.021 1280.75 368.938C1283.42 371.854 1284.75 375.99 1284.75 381.344V385.031H1263.22C1263.51 387.24 1264.39 389.01 1265.84 390.344C1267.32 391.677 1269.19 392.344 1271.44 392.344C1274.92 392.344 1277.64 391.083 1279.59 388.562L1284.03 393.531C1282.68 395.448 1280.84 396.948 1278.53 398.031C1276.22 399.094 1273.66 399.625 1270.84 399.625ZM1269.81 371.875C1268.02 371.875 1266.56 372.479 1265.44 373.688C1264.33 374.896 1263.62 376.625 1263.31 378.875H1275.88V378.156C1275.83 376.156 1275.29 374.615 1274.25 373.531C1273.21 372.427 1271.73 371.875 1269.81 371.875ZM1303.97 392.344C1305.64 392.344 1306.99 391.885 1308.03 390.969C1309.07 390.052 1309.61 388.833 1309.66 387.312H1318.12C1318.1 389.604 1317.48 391.708 1316.25 393.625C1315.02 395.521 1313.33 397 1311.19 398.062C1309.06 399.104 1306.71 399.625 1304.12 399.625C1299.29 399.625 1295.48 398.094 1292.69 395.031C1289.9 391.948 1288.5 387.698 1288.5 382.281V381.688C1288.5 376.479 1289.89 372.323 1292.66 369.219C1295.43 366.115 1299.23 364.562 1304.06 364.562C1308.29 364.562 1311.68 365.771 1314.22 368.188C1316.78 370.583 1318.08 373.781 1318.12 377.781H1309.66C1309.61 376.031 1309.07 374.615 1308.03 373.531C1306.99 372.427 1305.61 371.875 1303.91 371.875C1301.8 371.875 1300.21 372.646 1299.12 374.188C1298.06 375.708 1297.53 378.188 1297.53 381.625V382.562C1297.53 386.042 1298.06 388.542 1299.12 390.062C1300.19 391.583 1301.8 392.344 1303.97 392.344ZM1332.09 368.875C1334.49 366 1337.5 364.562 1341.12 364.562C1348.46 364.562 1352.18 368.823 1352.28 377.344V399H1343.25V377.594C1343.25 375.656 1342.83 374.229 1342 373.312C1341.17 372.375 1339.78 371.906 1337.84 371.906C1335.2 371.906 1333.28 372.927 1332.09 374.969V399H1323.06V351H1332.09V368.875ZM1367.41 365.188L1367.69 369.094C1370.1 366.073 1373.34 364.562 1377.41 364.562C1380.99 364.562 1383.66 365.615 1385.41 367.719C1387.16 369.823 1388.05 372.969 1388.09 377.156V399H1379.06V377.375C1379.06 375.458 1378.65 374.073 1377.81 373.219C1376.98 372.344 1375.59 371.906 1373.66 371.906C1371.11 371.906 1369.21 372.99 1367.94 375.156V399H1358.91V365.188H1367.41ZM1393.56 381.781C1393.56 378.427 1394.21 375.438 1395.5 372.812C1396.79 370.188 1398.65 368.156 1401.06 366.719C1403.5 365.281 1406.32 364.562 1409.53 364.562C1414.09 364.562 1417.81 365.958 1420.69 368.75C1423.58 371.542 1425.2 375.333 1425.53 380.125L1425.59 382.438C1425.59 387.625 1424.15 391.792 1421.25 394.938C1418.35 398.062 1414.47 399.625 1409.59 399.625C1404.72 399.625 1400.82 398.062 1397.91 394.938C1395.01 391.812 1393.56 387.562 1393.56 382.188V381.781ZM1402.59 382.438C1402.59 385.646 1403.2 388.104 1404.41 389.812C1405.61 391.5 1407.34 392.344 1409.59 392.344C1411.78 392.344 1413.49 391.51 1414.72 389.844C1415.95 388.156 1416.56 385.469 1416.56 381.781C1416.56 378.635 1415.95 376.198 1414.72 374.469C1413.49 372.74 1411.76 371.875 1409.53 371.875C1407.32 371.875 1405.61 372.74 1404.41 374.469C1403.2 376.177 1402.59 378.833 1402.59 382.438ZM1440.69 399H1431.62V351H1440.69V399ZM1446.75 381.781C1446.75 378.427 1447.4 375.438 1448.69 372.812C1449.98 370.188 1451.83 368.156 1454.25 366.719C1456.69 365.281 1459.51 364.562 1462.72 364.562C1467.28 364.562 1471 365.958 1473.88 368.75C1476.77 371.542 1478.39 375.333 1478.72 380.125L1478.78 382.438C1478.78 387.625 1477.33 391.792 1474.44 394.938C1471.54 398.062 1467.66 399.625 1462.78 399.625C1457.91 399.625 1454.01 398.062 1451.09 394.938C1448.2 391.812 1446.75 387.562 1446.75 382.188V381.781ZM1455.78 382.438C1455.78 385.646 1456.39 388.104 1457.59 389.812C1458.8 391.5 1460.53 392.344 1462.78 392.344C1464.97 392.344 1466.68 391.51 1467.91 389.844C1469.14 388.156 1469.75 385.469 1469.75 381.781C1469.75 378.635 1469.14 376.198 1467.91 374.469C1466.68 372.74 1464.95 371.875 1462.72 371.875C1460.51 371.875 1458.8 372.74 1457.59 374.469C1456.39 376.177 1455.78 378.833 1455.78 382.438ZM1483.03 381.844C1483.03 376.656 1484.26 372.479 1486.72 369.312C1489.2 366.146 1492.53 364.562 1496.72 364.562C1500.43 364.562 1503.31 365.833 1505.38 368.375L1505.75 365.188H1513.94V397.875C1513.94 400.833 1513.26 403.406 1511.91 405.594C1510.57 407.781 1508.69 409.448 1506.25 410.594C1503.81 411.74 1500.96 412.312 1497.69 412.312C1495.21 412.312 1492.79 411.812 1490.44 410.812C1488.08 409.833 1486.3 408.562 1485.09 407L1489.09 401.5C1491.34 404.021 1494.07 405.281 1497.28 405.281C1499.68 405.281 1501.54 404.635 1502.88 403.344C1504.21 402.073 1504.88 400.26 1504.88 397.906V396.094C1502.79 398.448 1500.05 399.625 1496.66 399.625C1492.59 399.625 1489.3 398.042 1486.78 394.875C1484.28 391.688 1483.03 387.469 1483.03 382.219V381.844ZM1492.06 382.5C1492.06 385.562 1492.68 387.969 1493.91 389.719C1495.14 391.448 1496.82 392.312 1498.97 392.312C1501.72 392.312 1503.69 391.281 1504.88 389.219V375C1503.67 372.938 1501.72 371.906 1499.03 371.906C1496.86 371.906 1495.16 372.792 1493.91 374.562C1492.68 376.333 1492.06 378.979 1492.06 382.5ZM1533.53 386.219L1539.78 365.188H1549.47L1535.88 404.25L1535.12 406.031C1533.1 410.448 1529.77 412.656 1525.12 412.656C1523.81 412.656 1522.48 412.458 1521.12 412.062V405.219L1522.5 405.25C1524.21 405.25 1525.48 404.99 1526.31 404.469C1527.17 403.948 1527.83 403.083 1528.31 401.875L1529.38 399.094L1517.53 365.188H1527.25L1533.53 386.219ZM1553.34 396.882H1558.94V399H1550.71V386.203H1553.34V396.882ZM1563.1 396.882H1568.7V399H1560.46V386.203H1563.1V396.882ZM1579.7 394.737C1579.6 396.114 1579.09 397.198 1578.17 397.989C1577.26 398.78 1576.05 399.176 1574.55 399.176C1572.91 399.176 1571.62 398.625 1570.67 397.523C1569.74 396.416 1569.27 394.898 1569.27 392.971V392.188C1569.27 390.958 1569.48 389.874 1569.92 388.937C1570.35 387.999 1570.97 387.281 1571.77 386.783C1572.58 386.279 1573.52 386.027 1574.58 386.027C1576.06 386.027 1577.25 386.423 1578.15 387.214C1579.06 388.005 1579.58 389.115 1579.72 390.545H1577.08C1577.02 389.719 1576.79 389.121 1576.39 388.752C1575.99 388.377 1575.39 388.189 1574.58 388.189C1573.71 388.189 1573.05 388.506 1572.61 389.139C1572.17 389.766 1571.95 390.741 1571.94 392.065V393.032C1571.94 394.415 1572.15 395.426 1572.56 396.064C1572.99 396.703 1573.65 397.022 1574.55 397.022C1575.36 397.022 1575.97 396.838 1576.37 396.469C1576.77 396.094 1577 395.517 1577.06 394.737H1579.7Z" fill="#2D4663"/>
<defs>
<filter id="filter0_d" x="9.42126" y="20.4214" width="498.157" height="515.136" filterUnits="userSpaceOnUse" color-interpolation-filters="sRGB">
<feFlood flood-opacity="0" result="BackgroundImageFix"/>
<feColorMatrix in="SourceAlpha" type="matrix" values="0 0 0 0 0 0 0 0 0 0 0 0 0 0 0 0 0 0 127 0"/>
<feOffset dx="-4" dy="10"/>
<feGaussianBlur stdDeviation="7.5"/>
<feColorMatrix type="matrix" values="0 0 0 0 0 0 0 0 0 0 0 0 0 0 0 0 0 0 0.25 0"/>
<feBlend mode="normal" in2="BackgroundImageFix" result="effect1_dropShadow"/>
<feBlend mode="normal" in="SourceGraphic" in2="effect1_dropShadow" result="shape"/>
</filter>
<filter id="filter1_d" x="0" y="0" width="537" height="553.979" filterUnits="userSpaceOnUse" color-interpolation-filters="sRGB">
<feFlood flood-opacity="0" result="BackgroundImageFix"/>
<feColorMatrix in="SourceAlpha" type="matrix" values="0 0 0 0 0 0 0 0 0 0 0 0 0 0 0 0 0 0 127 0"/>
<feOffset dx="6" dy="9"/>
<feGaussianBlur stdDeviation="9"/>
<feColorMatrix type="matrix" values="0 0 0 0 0 0 0 0 0 0 0 0 0 0 0 0 0 0 0.25 0"/>
<feBlend mode="normal" in2="BackgroundImageFix" result="effect1_dropShadow"/>
<feBlend mode="normal" in="SourceGraphic" in2="effect1_dropShadow" result="shape"/>
</filter>
</defs>
</svg>
