<svg xmlns="http://www.w3.org/2000/svg" viewBox="0 0 1515.3 349.8">
  <defs>
    <style>
      .cls-1 {
        fill: #21b3a2;
      }

      .cls-2, .cls-3 {
        fill: #2d4663;
      }

      .cls-2 {
        fill-rule: evenodd;
      }

      .cls-4 {
        fill: #fff;
      }
    </style>
  </defs>
  <title>logo-final</title>
  <g id="Layer_2" data-name="Layer 2">
    <g id="Layer_1-2" data-name="Layer 1">
      <path class="cls-1" d="M100.3,18.5A13,13,0,0,1,111.5,12H284.6a13.1,13.1,0,0,1,11.3,6.5l86.5,149.9a13.1,13.1,0,0,1,0,13L295.9,331.3a13.1,13.1,0,0,1-11.3,6.5H111.5a13,13,0,0,1-11.2-6.5L13.8,181.4a12.6,12.6,0,0,1,0-13Z"/>
      <path class="cls-2" d="M111.5,0H284.6a25.1,25.1,0,0,1,21.7,12.5l86.5,149.9a24.8,24.8,0,0,1,0,25L306.3,337.3a25.1,25.1,0,0,1-21.7,12.5H111.5a25.1,25.1,0,0,1-21.6-12.5L3.3,187.4a25.3,25.3,0,0,1,0-25L89.9,12.5A25.1,25.1,0,0,1,111.5,0Zm0,12a13,13,0,0,0-11.2,6.5L13.8,168.4a12.6,12.6,0,0,0,0,13l86.5,149.9a13,13,0,0,0,11.2,6.5H284.6a13.1,13.1,0,0,0,11.3-6.5l86.5-149.9a13.1,13.1,0,0,0,0-13L295.9,18.5A13.1,13.1,0,0,0,284.6,12Z"/>
      <path class="cls-3" d="M58.2,259.8H337.3l-45.6,78.9H103Z"/>
      <path class="cls-4" d="M65.6,172.6s35.6,42.8,126.9,61.8S326,216.8,326,216.8s-22.2,62.4-37.3,80.7c-21.4,1.4-23.8-10.7-49.1-8.4s-28.5,23.6-47.1,19.6c-34.6-25.3-74-16.8-74-16.8L73.7,226Z"/>
      <path class="cls-4" d="M124.6,97.3,308.1,66.5s-34.1,47.6-37.2,83C268.2,181.2,288,229,288,229L124.6,201.8s-16-31-16-52.3S124.6,97.3,124.6,97.3Z"/>
      <path class="cls-4" d="M216.2,61.9s-3.6-9.9-7.9-13.6-14-5.8-14-5.8-2.2,16.8-3.8,38l22.8-3.9C215,67.7,216.2,61.9,216.2,61.9Z"/>
      <path class="cls-4" d="M195.1,218.6c1.7,7.6,2.9,12.4,2.9,12.4a34.5,34.5,0,0,0,5.2,1.4,44.5,44.5,0,0,0,5.4,0s-.9-4.6-2.2-11.9a46.9,46.9,0,0,1-5.7-.5A42.1,42.1,0,0,1,195.1,218.6Z"/>
      <path class="cls-3" d="M445,228.9V90.3h48.5c16.8,0,29.6,3.2,38.3,9.7s13,15.8,13,28.3a31.7,31.7,0,0,1-5.2,18A30.2,30.2,0,0,1,525,157.6c7.1,1.8,12.7,5.3,16.8,10.7s6.2,12,6.2,19.8c0,13.4-4.3,23.5-12.8,30.3s-20.6,10.4-36.3,10.5Zm28.5-60.4V206H498c6.7,0,12-1.6,15.7-4.8s5.7-7.7,5.7-13.3c0-12.7-6.6-19.2-19.7-19.4Zm0-20.2h21.2c14.4-.2,21.6-5.9,21.6-17.2,0-6.3-1.9-10.8-5.5-13.5s-9.4-4.2-17.3-4.2h-20Zm147.3,29.9H598.1v50.7H569.5V90.3H621c16.4,0,29,3.6,37.9,10.9s13.3,17.6,13.3,31c0,9.4-2,17.3-6.2,23.7s-10.2,11.3-18.5,15l30,56.7v1.3H646.8ZM598.1,155h23c7.2,0,12.7-1.8,16.7-5.4s5.9-8.7,5.9-15.2-1.9-11.6-5.6-15.4-9.4-5.6-17.1-5.6H598.1Zm209.8,7.7c0,13.7-2.4,25.6-7.2,35.9a54.4,54.4,0,0,1-20.8,23.8c-8.9,5.6-19.2,8.4-30.8,8.4a58,58,0,0,1-30.8-8.3,54.7,54.7,0,0,1-20.9-23.6q-7.5-15.5-7.5-35.4v-6.9c0-13.6,2.4-25.6,7.3-36A55.4,55.4,0,0,1,718,96.7a58.3,58.3,0,0,1,30.9-8.3,57.4,57.4,0,0,1,30.7,8.3c9.1,5.6,16,13.5,20.9,23.9s7.4,22.4,7.4,35.9ZM779,156.4c0-14.5-2.6-25.5-7.8-33.1S758.5,112,748.9,112s-17,3.7-22.2,11.2-7.8,18.4-7.9,32.8v6.7q0,21.3,7.8,33t22.5,11.7c9.6,0,16.9-3.8,22.1-11.3s7.7-18.5,7.8-32.9Zm125.8,43.9h-50l-9.6,28.6H814.9L866.5,90.3h26.4l51.9,138.6H914.5Zm-42.3-23.1h34.6l-17.4-51.9Zm95.3,51.7V90.3h42.6c12.2,0,23.1,2.7,32.7,8.3a56.1,56.1,0,0,1,22.6,23.4c5.4,10.1,8.1,21.6,8.1,34.4v6.4c0,12.9-2.7,24.4-8,34.4a57.2,57.2,0,0,1-22.4,23.3,66,66,0,0,1-32.7,8.4Zm28.6-115.5V206h13.8c11.1,0,19.7-3.7,25.6-11s8.9-17.7,9-31.3v-7.4c0-14-2.9-24.7-8.7-31.9s-14.4-11-25.7-11Zm170.1,79.1q0-8.1-5.7-12.3c-3.8-3-10.7-6-20.6-9.2a146.7,146.7,0,0,1-23.5-9.5c-15.7-8.5-23.6-20-23.6-34.4a33.5,33.5,0,0,1,6.3-20c4.2-5.9,10.3-10.5,18.2-13.8a68.5,68.5,0,0,1,26.6-4.9,62.4,62.4,0,0,1,26.5,5.4,41.9,41.9,0,0,1,18,15.1,39.9,39.9,0,0,1,6.5,22.3h-28.6c0-6.3-2-11.3-6-14.7s-9.6-5.4-16.9-5.4-12.4,1.5-16.2,4.5a13.7,13.7,0,0,0-5.8,11.6c0,4.5,2.2,8.3,6.7,11.3s11.3,5.9,20.1,8.6c16.3,4.9,28.1,11,35.5,18.2a36.2,36.2,0,0,1,11.2,27c0,12-4.6,21.5-13.7,28.3s-21.2,10.2-36.6,10.2a70.3,70.3,0,0,1-29.1-5.8c-8.8-3.9-15.5-9.3-20.1-16.1a41.2,41.2,0,0,1-6.9-23.6h28.7c0,15.3,9.1,22.9,27.4,22.9,6.8,0,12.1-1.3,15.9-4.1S1156.5,197.5,1156.5,192.5Zm78.5,36.4h-28.6V90.3H1235Zm26.5,0V90.3h42.7c12.2,0,23.1,2.7,32.6,8.3a56.1,56.1,0,0,1,22.6,23.4c5.4,10.1,8.1,21.6,8.1,34.4v6.4c0,12.9-2.7,24.4-8,34.4a56.5,56.5,0,0,1-22.4,23.3,65.6,65.6,0,0,1-32.6,8.4Zm28.6-115.5V206h13.8c11.2,0,19.7-3.7,25.6-11s8.9-17.7,9.1-31.3v-7.4c0-14-3-24.7-8.8-31.9s-14.4-11-25.6-11Zm181.7,55.4h-54.9V206h64.4v22.9h-92.9V90.3h92.7v23.1h-64.2v33h54.9Z"/>
      <path class="cls-3" d="M1188.9,268H1175v37.9h-9.4V268h-13.8v-7.6h37.1Zm17.5,38.5a16.8,16.8,0,0,1-12.1-4.5c-3.1-3.1-4.7-7.1-4.7-12.2v-.9a20.6,20.6,0,0,1,2-9.1,14.4,14.4,0,0,1,5.6-6.1,15,15,0,0,1,8.2-2.2c4.7,0,8.3,1.4,10.9,4.3s4,7.1,4,12.4v3.7h-21.5a8.6,8.6,0,0,0,2.6,5.3,7.9,7.9,0,0,0,5.6,2,9.9,9.9,0,0,0,8.2-3.7l4.4,4.9a13.7,13.7,0,0,1-5.5,4.5A17.7,17.7,0,0,1,1206.4,306.5Zm-1-27.7a5.7,5.7,0,0,0-4.4,1.8,9.2,9.2,0,0,0-2.1,5.2h12.6v-.7a6.9,6.9,0,0,0-1.7-4.7A5.7,5.7,0,0,0,1205.4,278.8Zm34.2,20.4a5.8,5.8,0,0,0,4-1.3,4.6,4.6,0,0,0,1.6-3.7h8.5a10.9,10.9,0,0,1-1.9,6.3,12.8,12.8,0,0,1-5,4.5,16.7,16.7,0,0,1-7.1,1.5c-4.8,0-8.6-1.5-11.4-4.6s-4.2-7.3-4.2-12.7v-.6c0-5.2,1.4-9.4,4.1-12.5s6.6-4.6,11.4-4.6,7.7,1.2,10.2,3.6a12.4,12.4,0,0,1,3.9,9.6h-8.5a5.7,5.7,0,0,0-1.6-4.3,5.3,5.3,0,0,0-4.1-1.6,5.4,5.4,0,0,0-4.8,2.3c-1.1,1.5-1.6,4-1.6,7.4v1c0,3.4.5,5.9,1.6,7.5A5.6,5.6,0,0,0,1239.6,299.2Zm28.1-23.4a11.2,11.2,0,0,1,9-4.3c7.3,0,11.1,4.2,11.2,12.7v21.7h-9.1V284.5a6.5,6.5,0,0,0-1.2-4.3c-.8-.9-2.2-1.4-4.2-1.4a6.1,6.1,0,0,0-5.7,3.1v24h-9.1v-48h9.1Zm35.3-3.7.3,3.9a11.7,11.7,0,0,1,9.7-4.5c3.6,0,6.2,1,8,3.1s2.6,5.3,2.7,9.5v21.8h-9.1V284.3a6.2,6.2,0,0,0-1.2-4.2c-.8-.9-2.2-1.3-4.2-1.3a6.2,6.2,0,0,0-5.7,3.3v23.8h-9V272.1Zm26.1,16.6a19.9,19.9,0,0,1,2-9,14.8,14.8,0,0,1,5.5-6.1,17,17,0,0,1,8.5-2.1,15.4,15.4,0,0,1,11.2,4.2c2.9,2.7,4.5,6.5,4.8,11.3v2.3c0,5.2-1.5,9.4-4.4,12.5s-6.7,4.7-11.6,4.7-8.8-1.5-11.7-4.7-4.4-7.3-4.4-12.7Zm9.1.6c0,3.2.6,5.7,1.8,7.4a5.9,5.9,0,0,0,5.2,2.5,5.8,5.8,0,0,0,5.1-2.5c1.2-1.6,1.8-4.3,1.8-8s-.6-5.6-1.8-7.3a5.9,5.9,0,0,0-5.2-2.6,5.7,5.7,0,0,0-5.1,2.6C1338.8,283.1,1338.2,285.7,1338.2,289.3Zm38.1,16.6h-9.1v-48h9.1Zm6-17.2a19.9,19.9,0,0,1,2-9,14.8,14.8,0,0,1,5.5-6.1,17,17,0,0,1,8.5-2.1,15.4,15.4,0,0,1,11.2,4.2c2.9,2.7,4.5,6.5,4.8,11.3v2.3c0,5.2-1.5,9.4-4.4,12.5s-6.8,4.7-11.6,4.7-8.8-1.5-11.7-4.7-4.4-7.3-4.4-12.7Zm9.1.6c0,3.2.6,5.7,1.8,7.4a5.9,5.9,0,0,0,5.2,2.5,5.8,5.8,0,0,0,5.1-2.5c1.2-1.6,1.8-4.3,1.8-8s-.6-5.6-1.8-7.3a5.9,5.9,0,0,0-5.2-2.6,5.7,5.7,0,0,0-5.1,2.6C1392,283.1,1391.4,285.7,1391.4,289.3Zm27.2-.6c0-5.1,1.2-9.3,3.7-12.5a11.9,11.9,0,0,1,10-4.7c3.7,0,6.6,1.2,8.7,3.8l.3-3.2h8.2v32.7a15,15,0,0,1-2,7.7,12.7,12.7,0,0,1-5.7,5,20.5,20.5,0,0,1-8.5,1.7,18.7,18.7,0,0,1-7.3-1.5,12.7,12.7,0,0,1-5.3-3.8l4-5.5a10.6,10.6,0,0,0,8.2,3.8,7.8,7.8,0,0,0,5.6-2,7,7,0,0,0,2-5.4V303a10.8,10.8,0,0,1-8.3,3.5,12.1,12.1,0,0,1-9.8-4.7c-2.5-3.2-3.8-7.4-3.8-12.7Zm9,.7a12.3,12.3,0,0,0,1.9,7.2,5.9,5.9,0,0,0,5.1,2.6,6.3,6.3,0,0,0,5.9-3.1V281.9a6.3,6.3,0,0,0-5.9-3.1,5.8,5.8,0,0,0-5.1,2.7C1428.3,283.2,1427.6,285.9,1427.6,289.4Zm41.5,3.7,6.3-21h9.7l-13.6,39.1-.8,1.7c-2,4.4-5.3,6.7-10,6.7a14.4,14.4,0,0,1-4-.6v-6.9h1.4a7.4,7.4,0,0,0,3.8-.8,5.4,5.4,0,0,0,2-2.6l1.1-2.8-11.9-33.9h9.7Zm19.8,10.7h5.6v2.1h-8.2V293.1h2.6Zm9.8,0h5.6v2.1H1496V293.1h2.7Zm16.6-2.2a4.7,4.7,0,0,1-1.5,3.3,5.7,5.7,0,0,1-3.7,1.2,4.7,4.7,0,0,1-3.8-1.7,6.4,6.4,0,0,1-1.4-4.5v-.8a8.8,8.8,0,0,1,.6-3.3,4.8,4.8,0,0,1,1.9-2.1,5.5,5.5,0,0,1,6.3.4,4.7,4.7,0,0,1,1.6,3.3h-2.6a2.2,2.2,0,0,0-2.5-2.3,2.3,2.3,0,0,0-2,.9,5.8,5.8,0,0,0-.7,3v.9a6.3,6.3,0,0,0,.6,3.1,2.4,2.4,0,0,0,2,.9,3.3,3.3,0,0,0,1.9-.5,2.4,2.4,0,0,0,.6-1.8Z"/>
    </g>
  </g>
</svg>
